<svg width="138" height="44" viewBox="0 0 138 44" fill="none" xmlns="http://www.w3.org/2000/svg">
<path d="M62.668 16.636C64.076 16.636 65.198 17.098 66.034 18.022C66.87 18.946 67.288 20.244 67.288 21.916V29H64.208V22.268C64.208 21.3 63.9587 20.552 63.46 20.024C62.9613 19.4813 62.2793 19.21 61.414 19.21C60.534 19.21 59.83 19.496 59.302 20.068C58.774 20.64 58.51 21.4613 58.51 22.532V29H55.408V12.72H58.51V19.254C58.8327 18.4327 59.3607 17.7947 60.094 17.34C60.842 16.8707 61.7 16.636 62.668 16.636ZM76.0894 16.658C77.2774 16.658 78.3407 16.9073 79.2794 17.406C80.2327 17.9047 80.9807 18.6307 81.5234 19.584C82.066 20.5227 82.3374 21.63 82.3374 22.906C82.3374 24.182 82.066 25.2893 81.5234 26.228C80.9807 27.1667 80.2327 27.8927 79.2794 28.406C78.3407 28.9047 77.2774 29.154 76.0894 29.154C74.9014 29.154 73.8307 28.9047 72.8774 28.406C71.9387 27.8927 71.198 27.1667 70.6554 26.228C70.1127 25.2893 69.8414 24.182 69.8414 22.906C69.8414 21.63 70.1127 20.5227 70.6554 19.584C71.198 18.6307 71.9387 17.9047 72.8774 17.406C73.8307 16.9073 74.9014 16.658 76.0894 16.658ZM76.0894 19.342C75.224 19.342 74.4907 19.65 73.8894 20.266C73.288 20.8673 72.9874 21.7473 72.9874 22.906C72.9874 24.0647 73.288 24.952 73.8894 25.568C74.4907 26.1693 75.224 26.47 76.0894 26.47C76.9547 26.47 77.688 26.1693 78.2894 25.568C78.8907 24.952 79.1914 24.0647 79.1914 22.906C79.1914 21.7473 78.8907 20.8673 78.2894 20.266C77.688 19.65 76.9547 19.342 76.0894 19.342ZM100.48 16.636C101.961 16.636 103.127 17.098 103.978 18.022C104.843 18.9313 105.276 20.2293 105.276 21.916V29H102.196V22.268C102.196 21.3293 101.954 20.6107 101.47 20.112C101 19.5987 100.348 19.342 99.5116 19.342C98.6463 19.342 97.957 19.6133 97.4436 20.156C96.9303 20.6987 96.6736 21.4907 96.6736 22.532V29H93.5936V22.268C93.5936 21.3293 93.3516 20.6107 92.8676 20.112C92.3983 19.5987 91.7456 19.342 90.9096 19.342C90.0443 19.342 89.355 19.6133 88.8416 20.156C88.3283 20.6987 88.0716 21.4907 88.0716 22.532V29H84.9696V16.812H88.0716V19.122C88.3943 18.33 88.9003 17.7213 89.5896 17.296C90.2936 16.856 91.1076 16.636 92.0316 16.636C93.0143 16.636 93.865 16.8707 94.5836 17.34C95.317 17.8093 95.867 18.484 96.2336 19.364C96.615 18.528 97.1796 17.868 97.9276 17.384C98.6903 16.8853 99.541 16.636 100.48 16.636ZM119.903 22.444C119.903 22.752 119.866 23.104 119.793 23.5H110.861C110.905 24.5853 111.198 25.3847 111.741 25.898C112.284 26.4113 112.958 26.668 113.765 26.668C114.484 26.668 115.078 26.492 115.547 26.14C116.031 25.788 116.339 25.3113 116.471 24.71H119.749C119.588 25.5607 119.243 26.3233 118.715 26.998C118.187 27.6727 117.505 28.2007 116.669 28.582C115.848 28.9633 114.931 29.154 113.919 29.154C112.731 29.154 111.675 28.9047 110.751 28.406C109.827 27.8927 109.108 27.1667 108.595 26.228C108.082 25.2893 107.825 24.182 107.825 22.906C107.825 21.63 108.082 20.5227 108.595 19.584C109.108 18.6307 109.827 17.9047 110.751 17.406C111.675 16.9073 112.731 16.658 113.919 16.658C115.122 16.658 116.17 16.9073 117.065 17.406C117.974 17.9047 118.671 18.594 119.155 19.474C119.654 20.3393 119.903 21.3293 119.903 22.444ZM116.779 22.136C116.823 21.1387 116.559 20.3833 115.987 19.87C115.43 19.3567 114.74 19.1 113.919 19.1C113.083 19.1 112.379 19.3567 111.807 19.87C111.235 20.3833 110.92 21.1387 110.861 22.136H116.779ZM125.053 26.404H131.037V29H121.665V26.536L127.275 19.386H121.797V16.812H130.817V19.254L125.053 26.404Z" fill="#181A20"/>
<rect width="44" height="44" rx="20" fill="#EB6753"/>
<g clip-path="url(#clip0_5_128)">
<path d="M32.7715 22.1168L31.6482 21.1411V30.3498C31.6482 31.8994 30.3875 33.1599 28.8381 33.1599H25.4622C25.7456 32.8695 26.0459 32.5469 26.348 32.1981C26.6128 31.8925 26.8596 31.5885 27.0892 31.2866H28.8379C29.3544 31.2866 29.7747 30.8663 29.7747 30.3498V19.5142L22 12.7625L14.2252 19.5142V30.3498C14.2252 30.8663 14.6454 31.2866 15.1619 31.2866H16.9108C17.1402 31.5883 17.387 31.8925 17.652 32.1981C17.9541 32.5467 18.2544 32.8695 18.5377 33.1599H15.1619C13.6125 33.1599 12.3518 31.8994 12.3518 30.3498V21.1411L11.2283 22.1168L10 20.7023L22 10.2812L34 20.7023L32.7715 22.1168ZM22 24.2099C21.224 24.2099 20.5948 24.8389 20.5948 25.6149C20.5948 26.3909 21.224 27.02 22 27.02C22.776 27.02 23.4052 26.3909 23.4052 25.6149C23.4052 24.8389 22.776 24.2099 22 24.2099ZM27.3849 25.899C27.3849 27.3862 26.5597 29.0926 24.9321 30.9713C23.7798 32.3013 22.6392 33.2343 22.5912 33.2733L22 33.7546L21.4086 33.2733C21.3606 33.2343 20.22 32.3013 19.0677 30.9713C17.4401 29.0926 16.6149 27.3862 16.6149 25.899V25.6185C16.6149 22.6491 19.0306 20.2334 22 20.2334C24.9692 20.2334 27.3849 22.6491 27.3849 25.6185V25.899ZM25.5116 25.6185C25.5116 23.6822 23.9362 22.1068 22 22.1068C20.0637 22.1068 18.4884 23.6822 18.4884 25.6185V25.8992C18.4884 26.8937 19.197 28.2595 20.4837 29.7446C21.0416 30.3886 21.6006 30.9333 22.0026 31.3032C23.3434 30.0737 25.5114 27.7052 25.5114 25.8992V25.6185H25.5116Z" fill="white"/>
</g>
<defs>
<clipPath id="clip0_5_128">
<rect width="24" height="24" fill="white" transform="translate(10 10)"/>
</clipPath>
</defs>
</svg>
